#N canvas -8 -8 1920 997 10;
#X floatatom 729 412 5 0 0 0 - - -, f 5;
#X obj 729 430 mtof;
#X obj 727 566 dac~;
#X obj 728 514 *~;
#X obj 729 472 osc~ 440;
#X obj 727 541 *~ 0.1;
#X obj 729 451 sig~;
#X obj 746 492 r volume;
#X obj 729 390 r \$1_bang;
#X connect 0 0 1 0;
#X connect 1 0 6 0;
#X connect 3 0 5 0;
#X connect 4 0 3 0;
#X connect 5 0 2 0;
#X connect 5 0 2 1;
#X connect 6 0 4 0;
#X connect 7 0 3 1;
#X connect 8 0 0 0;
