#N canvas 190 245 766 515 10;
#X floatatom 50 -18 5 0 0 0 - - -, f 5;
#X obj 50 -40 r \$1_cell;
#X obj 50 4 mtof;
#X obj 49 215 dac~;
#X obj 50 163 *~;
#X obj 50 49 osc~ 440;
#X obj 49 190 *~ 0.1;
#X obj 50 27 sig~;
#X obj 68 77 r volume;
#X obj 101 101 tgl 24 0 toggleValue empty empty 17 7 0 10 -262130 -1
-1 0 1;
#X obj 68 123 *;
#X connect 0 0 2 0;
#X connect 1 0 0 0;
#X connect 2 0 7 0;
#X connect 4 0 6 0;
#X connect 5 0 4 0;
#X connect 6 0 3 0;
#X connect 6 0 3 1;
#X connect 7 0 5 0;
#X connect 8 0 10 0;
#X connect 9 0 10 1;
#X connect 10 0 4 1;
#X coords 0 -1 1 1 26 26 2 100 100;
