#N canvas 624 0 960 802 10;
#X obj 329 293 loadbang;
#X obj 36 385 s 1_cell;
#X obj 329 270 bng 15 250 50 0 empty empty empty 17 7 0 10 -262144
-1 -1;
#X obj 91 385 s 2_cell;
#X obj 146 385 s 3_cell;
#X msg 36 365 55;
#X msg 91 365 57;
#X msg 146 365 59;
#X msg 201 365 61;
#X msg 256 365 63;
#X msg 311 365 65;
#X obj 201 385 s 4_cell;
#X obj 256 385 s 5_cell;
#X obj 311 385 s 6_cell;
#X msg 366 365 67;
#X msg 421 365 69;
#X msg 476 365 71;
#X msg 531 365 73;
#X msg 592 365 75;
#X msg 653 365 77;
#X obj 366 385 s 7_cell;
#X obj 421 385 s 8_cell;
#X obj 476 385 s 9_cell;
#X obj 531 385 s 10_cell;
#X obj 592 385 s 11_cell;
#X obj 653 385 s 12_cell;
#X obj 102 69 vsl 12 50 0.3 0.7 0 0 empty empty empty 0 -9 0 10 -262144
-1 -1 0 1;
#X obj 102 128 s volume;
#X obj -4 102 cell 7;
#X obj -46 81 cell 1;
#X obj 17 123 cell 12;
#X obj -25 81 cell 2;
#X obj -4 81 cell 3;
#X obj 17 81 cell 4;
#X obj -46 102 cell 5;
#X obj -25 102 cell 6;
#X obj 17 102 cell 8;
#X obj -46 123 cell 9;
#X obj -25 123 cell 10;
#X obj -4 123 cell 11;
#X msg 434 284 0.3;
#X obj 476 302 s volume;
#X connect 0 0 5 0;
#X connect 0 0 6 0;
#X connect 0 0 7 0;
#X connect 0 0 8 0;
#X connect 0 0 9 0;
#X connect 0 0 10 0;
#X connect 0 0 14 0;
#X connect 0 0 15 0;
#X connect 0 0 16 0;
#X connect 0 0 17 0;
#X connect 0 0 18 0;
#X connect 0 0 19 0;
#X connect 0 0 40 0;
#X connect 2 0 0 0;
#X connect 5 0 1 0;
#X connect 6 0 3 0;
#X connect 7 0 4 0;
#X connect 8 0 11 0;
#X connect 9 0 12 0;
#X connect 10 0 13 0;
#X connect 14 0 20 0;
#X connect 15 0 21 0;
#X connect 16 0 22 0;
#X connect 17 0 23 0;
#X connect 18 0 24 0;
#X connect 19 0 25 0;
#X connect 26 0 27 0;
#X connect 40 0 41 0;
