#N canvas 776 261 752 457 10;
#X obj 29 281 s 1_cell;
#X obj 29 320 s 2_cell;
#X obj 29 359 s 3_cell;
#X obj 29 398 s 4_cell;
#X obj 29 437 s 5_cell;
#X obj 91 281 s 6_cell;
#X obj 91 320 s 7_cell;
#X obj 91 359 s 8_cell;
#X obj 91 398 s 9_cell;
#X obj 91 437 s 10_cell;
#X obj 153 281 s 11_cell;
#X obj 153 320 s 12_cell;
#X obj 572 98 loadbang;
#X text 102 112 Setup Patch;
#X msg 29 261 50;
#X obj 153 359 s 13_cell;
#X obj 153 398 s 14_cell;
#X obj 160 437 s 15_cell;
#X msg 29 300 51;
#X msg 29 339 52;
#X msg 29 378 53;
#X msg 29 417 54;
#X msg 91 261 55;
#X msg 91 300 56;
#X msg 91 339 57;
#X msg 91 378 58;
#X msg 91 417 59;
#X msg 153 261 60;
#X msg 153 300 61;
#X msg 153 339 62;
#X msg 153 378 63;
#X msg 160 417 64;
#X obj 222 281 s 16_cell;
#X obj 222 320 s 17_cell;
#X obj 222 359 s 18_cell;
#X obj 222 398 s 19_cell;
#X obj 229 437 s 20_cell;
#X msg 222 261 65;
#X msg 222 300 66;
#X msg 222 339 67;
#X msg 222 378 68;
#X msg 229 417 69;
#X obj 291 281 s 21_cell;
#X obj 291 320 s 22_cell;
#X obj 291 359 s 23_cell;
#X obj 291 398 s 24_cell;
#X msg 291 261 70;
#X msg 291 300 71;
#X msg 291 339 72;
#X msg 291 378 73;
#X connect 12 0 14 0;
#X connect 12 0 18 0;
#X connect 12 0 19 0;
#X connect 12 0 20 0;
#X connect 12 0 21 0;
#X connect 12 0 22 0;
#X connect 12 0 23 0;
#X connect 12 0 24 0;
#X connect 12 0 25 0;
#X connect 12 0 26 0;
#X connect 12 0 27 0;
#X connect 12 0 28 0;
#X connect 12 0 29 0;
#X connect 12 0 30 0;
#X connect 12 0 31 0;
#X connect 12 0 37 0;
#X connect 12 0 46 0;
#X connect 12 0 38 0;
#X connect 12 0 39 0;
#X connect 12 0 40 0;
#X connect 12 0 41 0;
#X connect 12 0 47 0;
#X connect 12 0 48 0;
#X connect 12 0 49 0;
#X connect 14 0 0 0;
#X connect 18 0 1 0;
#X connect 19 0 2 0;
#X connect 20 0 3 0;
#X connect 21 0 4 0;
#X connect 22 0 5 0;
#X connect 23 0 6 0;
#X connect 24 0 7 0;
#X connect 25 0 8 0;
#X connect 26 0 9 0;
#X connect 27 0 10 0;
#X connect 28 0 11 0;
#X connect 29 0 15 0;
#X connect 30 0 16 0;
#X connect 31 0 17 0;
#X connect 37 0 32 0;
#X connect 38 0 33 0;
#X connect 39 0 34 0;
#X connect 40 0 35 0;
#X connect 41 0 36 0;
#X connect 46 0 42 0;
#X connect 47 0 43 0;
#X connect 48 0 44 0;
#X connect 49 0 45 0;
#X coords 0 -1 1 1 85 40 2 100 100;
