#N canvas 1229 469 450 300 10;
#X obj 104 105 vsl 12 50 0.3 0.7 0 0 empty empty empty 0 -9 0 10 -262144
-1 -1 1300 1;
#X obj 104 202 s volume;
#X obj 153 136 metro 10;
#X obj 153 112 loadbang;
#X connect 0 0 1 0;
#X connect 2 0 1 0;
#X connect 3 0 2 0;
#X connect 3 0 0 0;
#X coords 0 -1 1 1 20 60 2 100 100;
